# OBJ written from F:\WORK\TabTale\Heroes\Viperion\Viperion_Power_mission\FINAL\Power_bracelet_low_02.OBJ
mtllib Power_bracelet_low_02.mtl
# Units	meters

g Mesh
v 0.477324 1.36076 1.18062
v 0.471023 1.7683 0.386301
v 0.459637 1.34054 -1.23315
v 0.455273 0.608821 -1.69053
v 0.446839 -0.261906 -1.76184
v 0.443355 -1.09039 -1.40859
v 0.430702 -1.67413 -0.743438
v 0.436241 -1.87108 0.117416
v 0.437039 -1.64771 0.962013
v 0.450503 -1.0475 1.58335
v 0.460354 -0.219049 1.84853
v 0.468608 0.650053 1.70281
v 0.106302 0.309495 -1.83443
v 0.046992 -0.099937 -1.85342
v 0.236436 1.21347 -1.4333
v 0.436231 1.84325 -0.0714245
v 0.395625 1.84259 0.270505
v 0.491402 1.8027 -0.0288527
v 0.483564 1.63402 0.756299
v 0.492589 1.94771 0.25163
v 0.51407 1.98713 -0.0922426
v 0.376812 1.97266 -0.729609
v 0.319811 2.10519 0.462602
v 0.481727 2.17618 -0.083697
v 0.423525 2.24681 0.190602
v 0.488867 2.02588 0.209393
v 0.475742 1.74982 -0.470229
v 0.379032 1.77772 -0.568626
v 0.42613 2.02532 -0.49826
v 0.267377 1.31308 -1.64392
v 0.114426 0.309064 -1.97605
v 0.0754708 -0.0937727 -1.94745
v 0.41817 1.42625 0.330441
v 0.42308 1.46038 -0.0274059
v 0.4149 1.41595 -0.366451
v 0.412702 1.08942 -0.983553
v 0.405758 0.485454 -1.35618
v 0.393994 -0.224873 -1.40376
v 0.398478 -0.887087 -1.14245
v 0.398208 -1.35078 -0.607255
v 0.396236 -1.51001 0.0876011
v 0.39937 -1.33508 0.767342
v 0.398117 -0.849699 1.28283
v 0.413 -0.199173 1.51187
v 0.415703 0.518409 1.39457
v 0.417379 1.10179 0.95842
v 0.405155 1.31358 0.609577
v -0.477324 1.36076 1.18062
v -0.471023 1.7683 0.386301
v -0.459637 1.34054 -1.23315
v -0.455273 0.608821 -1.69053
v -0.446839 -0.261906 -1.76184
v -0.443355 -1.09039 -1.40859
v -0.430702 -1.67413 -0.743438
v -0.436241 -1.87108 0.117416
v -0.437039 -1.64771 0.962013
v -0.450503 -1.0475 1.58335
v -0.460354 -0.219049 1.84853
v -0.468608 0.650053 1.70281
v -0.106302 0.309495 -1.83443
v -0.046992 -0.099937 -1.85342
v -0.236436 1.21347 -1.4333
v -0.436231 1.84325 -0.0714245
v -0.395625 1.84259 0.270505
v -0.491402 1.8027 -0.0288527
v -0.483564 1.63402 0.756299
v -0.492589 1.94771 0.25163
v -0.51407 1.98713 -0.0922426
v -0.376812 1.97266 -0.729609
v -0.319811 2.10519 0.462602
v -0.481727 2.17618 -0.083697
v -0.423525 2.24681 0.190602
v -0.488867 2.02588 0.209393
v -0.475742 1.74982 -0.470229
v -0.379032 1.77772 -0.568626
v -0.42613 2.02532 -0.49826
v -0.267377 1.31308 -1.64392
v -0.114426 0.309064 -1.97605
v -0.0754708 -0.0937727 -1.94745
v -0.41817 1.42625 0.330441
v -0.42308 1.46038 -0.0274059
v -0.4149 1.41595 -0.366451
v -0.412702 1.08942 -0.983553
v -0.405758 0.485454 -1.35618
v -0.393994 -0.224873 -1.40376
v -0.398478 -0.887087 -1.14245
v -0.398208 -1.35078 -0.607255
v -0.396236 -1.51001 0.0876011
v -0.39937 -1.33508 0.767342
v -0.398117 -0.849699 1.28283
v -0.413 -0.199173 1.51187
v -0.415703 0.518409 1.39457
v -0.417379 1.10179 0.95842
v -0.405155 1.31358 0.609577
v 0 2.44888 -0.00501977
v 0 2.30988 -0.634758
v 0 1.32937 -1.7334
v 0 -0.692075 1.8275
v 0 1.0448 1.56895
v 0 1.70081 0.863249
v 0 1.7997 0.628474
v 0 1.97593 0.77021
v 0 2.25006 0.508873
v 0 -0.119565 -1.95795
v 0 -0.148876 -1.85296
v 0 0.293258 -2.00232
v 0 2.11584 -0.974459
v 0 0.198766 1.90353
v 0 -1.47901 1.3282
v 0 -1.88072 0.53314
v 0 -1.87307 -0.367647
v 0 -1.4326 -1.18491
v 0 -0.680459 -1.70747
vn 0.959742 0.148703 -0.238293
vn 0.856267 -0.268342 0.441362
vn 0.797484 0.224145 0.560159
vn 0.996208 0.00254071 -0.0869623
vn 0.719095 0.0879671 -0.689321
vn 0.685177 0.0337075 -0.727596
vn 0.352434 -0.0963194 -0.930866
vn 0.840387 -0.216775 -0.496747
vn 0.643823 0.737339 -0.204507
vn 0.556203 0.811901 0.177353
vn 0.57853 0.60154 0.550865
vn 0.927999 0.191217 0.319771
vn 0.726245 0.396043 -0.561889
vn 0.847367 0.18838 -0.49647
vn 0.770383 0.490991 -0.406741
vn 0.905334 0.288364 -0.311795
vn 0.837789 0.426135 -0.341348
vn 0.854113 0.481608 0.19633
vn 0.998919 0.0462993 0.00425418
vn 0.977664 0.176904 -0.11348
vn 0.890335 0.320681 -0.323215
vn 0.807233 0.212118 -0.5508
vn 0.798948 -0.165316 -0.578233
vn 0.590471 0.562435 0.578801
vn 0.601308 0.308822 0.736924
vn 0.432001 -0.357143 -0.828145
vn 0.427683 -0.634061 -0.644247
vn 0.449721 0.063689 -0.890895
vn 0.607814 -0.0581091 0.79195
vn 0.466189 0.476668 -0.745289
vn 0.620872 -0.417645 0.663393
vn 0.488038 0.762334 -0.425047
vn 0.628663 -0.680176 0.37702
vn 0.481605 0.876314 -0.0114318
vn 0.62226 -0.782797 0.00456966
vn 0.471737 0.785244 0.401067
vn 0.59841 -0.710422 -0.370413
vn 0.463507 0.510141 0.724512
vn 0.606793 -0.467849 -0.642588
vn 0.459275 0.133155 0.878258
vn 0.46616 -0.277241 0.840138
vn 0.463375 -0.650797 0.601454
vn 0.433642 -0.843787 0.316195
vn 0.774433 0.573062 0.268054
vn 0.407231 -0.810895 -0.420252
vn 0.423793 -0.884928 -0.193138
vn 0.414363 -0.910007 0.0138051
vn -0.959742 0.148703 -0.238293
vn -0.996208 0.00254071 -0.0869623
vn -0.797484 0.224145 0.560159
vn -0.856267 -0.268342 0.441362
vn -0.719095 0.0879672 -0.689321
vn -0.840387 -0.216775 -0.496747
vn -0.352434 -0.0963194 -0.930866
vn -0.685177 0.0337075 -0.727596
vn -0.643823 0.737339 -0.204507
vn -0.927999 0.191217 0.319772
vn -0.57853 0.601541 0.550865
vn -0.556203 0.811901 0.177353
vn -0.726244 0.396043 -0.561889
vn -0.847367 0.18838 -0.49647
vn -0.905334 0.288364 -0.311795
vn -0.770383 0.490991 -0.406741
vn -0.837789 0.426135 -0.341348
vn -0.998919 0.0462993 0.00425418
vn -0.854113 0.481608 0.19633
vn -0.977664 0.176904 -0.11348
vn -0.890335 0.320681 -0.323215
vn -0.807233 0.212118 -0.5508
vn -0.798948 -0.165316 -0.578233
vn -0.590471 0.562435 0.578801
vn -0.427683 -0.634061 -0.644247
vn -0.432001 -0.357143 -0.828145
vn -0.601308 0.308822 0.736924
vn -0.449721 0.063689 -0.890896
vn -0.607814 -0.0581091 0.79195
vn -0.466189 0.476668 -0.745289
vn -0.620872 -0.417645 0.663393
vn -0.488038 0.762334 -0.425047
vn -0.628663 -0.680176 0.37702
vn -0.481605 0.876314 -0.0114318
vn -0.62226 -0.782797 0.00456967
vn -0.471737 0.785244 0.401068
vn -0.59841 -0.710422 -0.370413
vn -0.463507 0.510141 0.724511
vn -0.606793 -0.467849 -0.642588
vn -0.459275 0.133155 0.878258
vn -0.46616 -0.277241 0.840138
vn -0.463375 -0.650797 0.601454
vn -0.433642 -0.843787 0.316195
vn -0.774433 0.573062 0.268054
vn -0.407231 -0.810895 -0.420252
vn -0.423793 -0.884928 -0.193138
vn -0.414363 -0.910007 0.0138051
vn 3.17913e-008 -0.122073 0.992521
vn 2.07126e-008 0.651896 0.758308
vn -2.13824e-008 0.841771 0.539834
vn -2.01169e-008 0.999844 0.0176584
vn 0 0.936376 -0.350998
vn 0 0.796422 0.604741
vn 0 0.571356 0.820703
vn -9.12148e-009 -0.282328 -0.959318
vn -3.0477e-008 -0.284581 -0.958652
vn -5.40715e-008 0.204305 -0.978907
vn -4.57307e-008 0.590521 -0.807022
vn -4.27372e-008 0.789342 -0.613954
vn 4.46506e-009 0.149197 0.988808
vn 6.12477e-009 -0.317366 0.948303
vn 0 -0.730219 0.683214
vn 0 -0.97149 0.237082
vn -3.15662e-009 -0.971114 -0.238617
vn -3.09268e-009 -0.74667 -0.665195
vn 1.0867e-008 -0.462457 -0.886641
vt 0.04788 0.88051
vt 0.06285 0.93086
vt 0.05893 0.94878
vt 0.02708 0.88154
vt 0.1203 0.51195
vt 0.10901 0.51408
vt 0.11892 0.45887
vt 0.12393 0.46357
vt 0.07031 0.88711
vt 0.08354 0.91443
vt 0.09088 0.93831
vt 0.06884 0.92296
vt 0.10708 0.64443
vt 0.08528 0.64777
vt 0.08628 0.79533
vt 0.05064 0.79389
vt 0.08552 0.82525
vt 0.03037 0.98243
vt 0.01 0.88882
vt 0.03049 0.80437
vt 0.04963 0.67733
vt 0.05796 0.55575
vt 0.06332 0.43465
vt 0.79771 0.26048
vt 0.79771 0.36991
vt 0.74912 0.36991
vt 0.74912 0.26048
vt 0.74912 0.4792
vt 0.79771 0.4792
vt 0.74912 0.58519
vt 0.79771 0.58519
vt 0.74912 0.69201
vt 0.79771 0.69201
vt 0.74912 0.79907
vt 0.79771 0.79907
vt 0.59138 0.25961
vt 0.59138 0.15121
vt 0.63995 0.15121
vt 0.63995 0.25961
vt 0.59138 0.36783
vt 0.63995 0.36783
vt 0.59138 0.47736
vt 0.63995 0.47736
vt 0.59138 0.58506
vt 0.63995 0.58506
vt 0.59138 0.69187
vt 0.63995 0.69187
vt 0.63995 0.79811
vt 0.59138 0.79811
vt 0.79771 0.19844
vt 0.74912 0.19844
vt 0.74912 0.15121
vt 0.79771 0.15121
vt 0.63995 0.85156
vt 0.63995 0.9043
vt 0.59138 0.9043
vt 0.59138 0.85156
vt 0.20961 0.87952
vt 0.23042 0.8803
vt 0.1994 0.94792
vt 0.19526 0.93005
vt 0.13277 0.51188
vt 0.12855 0.46354
vt 0.13351 0.45878
vt 0.14408 0.51387
vt 0.18727 0.8864
vt 0.18918 0.92223
vt 0.16733 0.93784
vt 0.17437 0.91387
vt 0.14757 0.64419
vt 0.1694 0.64727
vt 0.2058 0.79295
vt 0.17019 0.79483
vt 0.17131 0.82473
vt 0.2476 0.88737
vt 0.22837 0.98122
vt 0.22607 0.80318
vt 0.20541 0.6764
vt 0.19562 0.55493
vt 0.18881 0.4339
vt 0.69654 0.26049
vt 0.74513 0.26049
vt 0.74513 0.36991
vt 0.69654 0.36991
vt 0.74513 0.4792
vt 0.69654 0.4792
vt 0.74513 0.58519
vt 0.69654 0.58519
vt 0.74513 0.69201
vt 0.69654 0.69201
vt 0.74513 0.79907
vt 0.69654 0.79907
vt 0.69253 0.25961
vt 0.64396 0.25961
vt 0.64396 0.15121
vt 0.69253 0.15121
vt 0.69253 0.36783
vt 0.64396 0.36783
vt 0.69253 0.47736
vt 0.64396 0.47736
vt 0.69253 0.58506
vt 0.64396 0.58506
vt 0.69253 0.69187
vt 0.64396 0.69187
vt 0.69253 0.79811
vt 0.64396 0.79811
vt 0.69654 0.19844
vt 0.74513 0.19844
vt 0.69654 0.15121
vt 0.74513 0.15121
vt 0.64396 0.85156
vt 0.69253 0.85156
vt 0.69253 0.9043
vt 0.64396 0.9043
vt 0.12932 0.97345
vt 0.12942 0.99
vt 0.12911 0.93886
vt 0.12879 0.88679
vt 0.12836 0.81617
vt 0.2128 0.03783
vt 0.23152 0.01659
vt 0.28586 0.0657
vt 0.2143 0.09584
vt 0.218 0.16883
vt 0.28605 0.10239
vt 0.28678 0.23701
vt 0.22115 0.29411
vt 0.4742 0.71371
vt 0.4742 0.61293
vt 0.58688 0.61293
vt 0.58688 0.71371
vt 0.4742 0.7702
vt 0.58688 0.7702
vt 0.4742 0.51233
vt 0.58688 0.51233
vt 0.4742 0.81188
vt 0.58688 0.81188
vt 0.35853 0.31857
vt 0.35853 0.2714
vt 0.47085 0.2714
vt 0.47085 0.31857
vt 0.35853 0.22182
vt 0.47085 0.22182
vt 0.47085 0.41486
vt 0.35853 0.41486
vt 0.47085 0.51274
vt 0.35853 0.51274
vt 0.47085 0.61094
vt 0.35853 0.61094
vt 0.3586 0.03705
vt 0.35773 0.09507
vt 0.33966 0.016
vt 0.35482 0.1681
vt 0.35301 0.2934
vt 0.12623 0.46139
vt 0.12618 0.45249
vt 0.12651 0.50909
vt 0.1273 0.63971
vt 0.12812 0.77714
vt 0.28744 0.36041
vt 0.28808 0.47997
vt 0.22643 0.5375
vt 0.22385 0.4173
vt 0.35164 0.41661
vt 0.35036 0.53683
vt 0.28875 0.60322
vt 0.22909 0.65614
vt 0.34897 0.6555
vt 0.28939 0.72265
vt 0.2262 0.77582
vt 0.35315 0.77514
vt 0.12353 0.01
vt 0.12426 0.13154
vt 0.06545 0.18831
vt 0.06411 0.06726
vt 0.18364 0.06655
vt 0.18374 0.1876
vt 0.125 0.2553
vt 0.06416 0.31002
vt 0.18648 0.30929
vt 0.12573 0.3782
vt 0.47085 0.70912
vt 0.35853 0.70912
vt 0.47085 0.80679
vt 0.35853 0.80679
vt 0.47085 0.9051
vt 0.35853 0.9051
vt 0.58688 0.31893
vt 0.4742 0.31893
vt 0.4742 0.22182
vt 0.58688 0.22182
vt 0.58688 0.41689
vt 0.4742 0.41689
usemtl Default
f 21/1/1 20/2/2 17/3/3 16/4/4
f 31/5/5 13/6/6 14/7/7 32/8/8
f 24/9/9 25/10/10 23/11/11 26/12/12
f 24/9/9 26/12/12 20/2/2 21/1/1
f 30/13/13 15/14/14 13/6/6 31/5/5
f 15/14/14 30/13/13 22/15/15 28/16/16
f 28/16/16 22/15/15 29/17/17
f 29/17/17 21/1/1 16/4/4 28/16/16
f 16/4/4 17/3/3 2/18/18 18/19/19
f 28/16/16 16/4/4 18/19/19 27/20/20
f 3/21/21 15/14/14 28/16/16 27/20/20
f 13/6/6 15/14/14 3/21/21 4/22/22
f 14/7/7 13/6/6 4/22/22 5/23/23
f 1/24/24 12/25/25 45/26/26 46/27/27
f 44/28/28 45/26/26 12/25/25 11/29/29
f 43/30/30 44/28/28 11/29/29 10/31/31
f 42/32/32 43/30/30 10/31/31 9/33/33
f 41/34/34 42/32/32 9/33/33 8/35/35
f 40/36/36 41/37/34 8/38/35 7/39/37
f 39/40/38 40/36/36 7/39/37 6/41/39
f 38/42/40 39/40/38 6/41/39 5/43/23
f 37/44/41 38/42/40 5/43/23 4/45/22
f 36/46/42 37/44/41 4/45/22 3/47/21
f 36/46/42 3/47/21 27/48/20 35/49/43
f 19/50/44 1/24/24 46/27/27 47/51/45
f 47/51/45 33/52/46 2/53/18 19/50/44
f 18/54/19 2/55/18 33/56/46 34/57/47
f 35/49/43 27/48/20 18/54/19 34/57/47
f 68/58/48 63/59/49 64/60/50 67/61/51
f 78/62/52 79/63/53 61/64/54 60/65/55
f 71/66/56 73/67/57 70/68/58 72/69/59
f 71/66/56 68/58/48 67/61/51 73/67/57
f 77/70/60 78/62/52 60/65/55 62/71/61
f 62/71/61 75/72/62 69/73/63 77/70/60
f 75/72/62 76/74/64 69/73/63
f 76/74/64 75/72/62 63/59/49 68/58/48
f 63/59/49 65/75/65 49/76/66 64/60/50
f 75/72/62 74/77/67 65/75/65 63/59/49
f 50/78/68 74/77/67 75/72/62 62/71/61
f 60/65/55 51/79/69 50/78/68 62/71/61
f 61/64/54 52/80/70 51/79/69 60/65/55
f 48/81/71 93/82/72 92/83/73 59/84/74
f 91/85/75 58/86/76 59/84/74 92/83/73
f 90/87/77 57/88/78 58/86/76 91/85/75
f 89/89/79 56/90/80 57/88/78 90/87/77
f 88/91/81 55/92/82 56/90/80 89/89/79
f 87/93/83 54/94/84 55/95/82 88/96/81
f 86/97/85 53/98/86 54/94/84 87/93/83
f 85/99/87 52/100/70 53/98/86 86/97/85
f 84/101/88 51/102/69 52/100/70 85/99/87
f 83/103/89 50/104/68 51/102/69 84/101/88
f 83/103/89 82/105/90 74/106/67 50/104/68
f 66/107/91 94/108/92 93/82/72 48/81/71
f 94/108/92 66/107/91 49/109/66 80/110/93
f 65/111/65 81/112/94 80/113/93 49/114/66
f 82/105/90 81/112/94 65/111/65 74/106/67
f 20/2/2 102/115/95 101/116/96 17/3/3
f 102/115/95 20/2/2 26/12/12 23/11/11
f 103/117/97 102/115/95 23/11/11
f 95/118/98 103/117/97 23/11/11 25/10/10
f 96/119/99 95/118/98 25/10/10 24/9/9
f 24/9/9 21/1/1 29/17/17 96/119/99
f 2/120/18 17/121/3 101/122/96 19/123/44
f 1/124/24 19/123/44 101/122/96 100/125/100
f 100/125/100 99/126/101 12/127/25 1/124/24
f 46/128/27 45/129/26 92/130/73 93/131/72
f 47/132/45 46/128/27 93/131/72 94/133/92
f 92/130/73 45/129/26 44/134/28 91/135/75
f 33/136/46 47/132/45 94/133/92 80/137/93
f 35/138/43 34/139/47 81/140/94 82/141/90
f 34/139/47 33/142/46 80/143/93 81/140/94
f 83/144/89 36/145/42 35/138/43 82/141/90
f 84/146/88 37/147/41 36/145/42 83/144/89
f 85/148/87 38/149/40 37/147/41 84/146/88
f 67/61/51 64/60/50 101/116/96 102/115/95
f 102/115/95 70/68/58 73/67/57 67/61/51
f 103/117/97 70/68/58 102/115/95
f 95/118/98 72/69/59 70/68/58 103/117/97
f 96/119/99 71/66/56 72/69/59 95/118/98
f 71/66/56 96/119/99 76/74/64 68/58/48
f 49/150/66 66/151/91 101/122/96 64/152/50
f 48/153/71 100/125/100 101/122/96 66/151/91
f 100/125/100 48/153/71 59/154/74 99/126/101
f 104/155/102 32/8/8 14/7/7 105/156/103
f 104/155/102 105/156/103 61/64/54 79/63/53
f 31/5/5 106/157/104 97/158/105 30/13/13
f 78/62/52 77/70/60 97/158/105 106/157/104
f 106/157/104 31/5/5 32/8/8 104/155/102
f 106/157/104 104/155/102 79/63/53 78/62/52
f 96/119/99 29/17/17 22/15/15 107/159/106
f 30/13/13 97/158/105 107/159/106 22/15/15
f 96/119/99 107/159/106 69/73/63 76/74/64
f 77/70/60 69/73/63 107/159/106 97/158/105
f 108/160/107 98/161/108 10/162/31 11/163/29
f 99/126/101 108/160/107 11/163/29 12/127/25
f 108/160/107 58/164/76 57/165/78 98/161/108
f 99/126/101 59/154/74 58/164/76 108/160/107
f 98/161/108 109/166/109 9/167/33 10/162/31
f 98/161/108 57/165/78 56/168/80 109/166/109
f 109/166/109 110/169/110 8/170/35 9/167/33
f 109/166/109 56/168/80 55/171/82 110/169/110
f 110/172/110 111/173/111 7/174/37 8/175/35
f 110/172/110 55/176/82 54/177/84 111/173/111
f 111/173/111 112/178/112 6/179/39 7/174/37
f 111/173/111 54/177/84 53/180/86 112/178/112
f 5/23/23 113/181/113 105/156/103 14/7/7
f 52/80/70 61/64/54 105/156/103 113/181/113
f 112/178/112 113/181/113 5/23/23 6/179/39
f 112/178/112 53/180/86 52/80/70 113/181/113
f 86/182/85 39/183/38 38/149/40 85/148/87
f 87/184/83 40/185/36 39/183/38 86/182/85
f 88/186/81 41/187/34 40/185/36 87/184/83
f 89/188/79 42/189/32 41/190/34 88/191/81
f 90/192/77 43/193/30 42/189/32 89/188/79
f 91/135/75 44/134/28 43/193/30 90/192/77
